# ProBuilder 4.2.3
# https://unity3d.com/unity/features/worldbuilding/probuilder
# 14.09.2021 14:03:33

mtllib ./123.mtl
o 123

g Arch
v 0 0 0
v 0.07165384 0.9104487 0
v 0 0 1.04
v 0.07165384 0.9104487 1.04
v 0.4074678 0.8572609 0
v 0.3400002 0 0
v 0.4074678 0.8572609 1.04
v 0.3400002 0 1.04
v 0.2848511 1.798479 0
v 0.2848511 1.798479 1.04
v 0.6082101 1.693413 0
v 0.6082101 1.693413 1.04
v 0.6343422 2.642225 0
v 0.6343422 2.642225 1.04
v 0.9372845 2.487868 0
v 0.9372845 2.487868 1.04
v 1.111521 3.42091 0
v 1.111521 3.42091 1.04
v 1.386587 3.221063 0
v 1.386587 3.221063 1.04
v 1.704638 4.115362 0
v 1.704638 4.115362 1.04
v 1.945055 3.874945 0
v 1.945055 3.874945 1.04
v 2.39909 4.708479 0
v 2.39909 4.708479 1.04
v 2.598937 4.433413 0
v 2.598937 4.433413 1.04
v 3.177775 5.185658 0
v 3.177775 5.185658 1.04
v 3.332132 4.882716 0
v 3.332132 4.882716 1.04
v 4.021522 5.535149 0
v 4.021522 5.535149 1.04
v 4.126587 5.21179 0
v 4.126587 5.21179 1.04
v 4.909552 5.748346 0
v 4.909552 5.748346 1.04
v 4.962739 5.412532 0
v 4.962739 5.412532 1.04
v 5.820001 5.82 0
v 5.820001 5.82 1.04
v 5.820001 5.48 0
v 5.820001 5.48 1.04
v 6.730449 5.748346 0
v 6.730449 5.748346 1.04
v 6.677261 5.412532 0
v 6.677261 5.412532 1.04
v 7.618479 5.535149 0
v 7.618479 5.535149 1.04
v 7.513413 5.21179 0
v 7.513413 5.21179 1.04
v 8.462225 5.185658 0
v 8.462225 5.185658 1.04
v 8.307867 4.882716 0
v 8.307867 4.882716 1.04
v 9.24091 4.708479 0
v 9.24091 4.708479 1.04
v 9.041063 4.433413 0
v 9.041063 4.433413 1.04
v 9.935362 4.115362 0
v 9.935362 4.115362 1.04
v 9.694945 3.874945 0
v 9.694945 3.874945 1.04
v 10.52848 3.42091 0
v 10.52848 3.42091 1.04
v 10.25341 3.221063 0
v 10.25341 3.221063 1.04
v 11.00566 2.642225 0
v 11.00566 2.642225 1.04
v 10.70272 2.487868 0
v 10.70272 2.487868 1.04
v 11.35515 1.798479 0
v 11.35515 1.798479 1.04
v 11.03179 1.693413 0
v 11.03179 1.693413 1.04
v 11.56835 0.9104485 0
v 11.56835 0.9104485 1.04
v 11.23253 0.8572608 0
v 11.23253 0.8572608 1.04
v 11.64 -5.088006E-07 0
v 11.64 -5.088006E-07 1.04
v 11.3 -4.790768E-07 0
v 11.3 -4.790768E-07 1.04
v 11.56835 -0.9104481 0
v 11.56835 -0.9104481 1.04
v 11.23253 -0.8572603 0
v 11.23253 -0.8572603 1.04
v 11.35515 -1.798479 0
v 11.35515 -1.798479 1.04
v 11.03179 -1.693413 0
v 11.03179 -1.693413 1.04
v 11.00566 -2.642225 0
v 11.00566 -2.642225 1.04
v 10.70272 -2.487868 0
v 10.70272 -2.487868 1.04
v 10.52848 -3.42091 0
v 10.52848 -3.42091 1.04
v 10.25341 -3.221062 0
v 10.25341 -3.221062 1.04
v 9.935362 -4.115361 0
v 9.935362 -4.115361 1.04
v 9.694945 -3.874945 0
v 9.694945 -3.874945 1.04
v 9.240911 -4.708478 0
v 9.240911 -4.708478 1.04
v 9.041064 -4.433412 0
v 9.041064 -4.433412 1.04
v 8.462226 -5.185658 0
v 8.462226 -5.185658 1.04
v 8.307869 -4.882716 0
v 8.307869 -4.882716 1.04
v 7.61848 -5.535149 0
v 7.61848 -5.535149 1.04
v 7.513414 -5.21179 0
v 7.513414 -5.21179 1.04
v 6.730449 -5.748346 0
v 6.730449 -5.748346 1.04
v 6.677261 -5.412532 0
v 6.677261 -5.412532 1.04
v 5.82 -5.82 0
v 5.82 -5.82 1.04
v 5.82 -5.48 0
v 5.82 -5.48 1.04
v 4.909551 -5.748346 0
v 4.909551 -5.748346 1.04
v 4.962739 -5.412532 0
v 4.962739 -5.412532 1.04
v 4.021521 -5.535149 0
v 4.021521 -5.535149 1.04
v 4.126586 -5.21179 0
v 4.126586 -5.21179 1.04
v 3.177777 -5.185659 0
v 3.177777 -5.185659 1.04
v 3.332134 -4.882717 0
v 3.332134 -4.882717 1.04
v 2.399091 -4.70848 0
v 2.399091 -4.70848 1.04
v 2.598938 -4.433414 0
v 2.598938 -4.433414 1.04
v 1.704639 -4.115362 0
v 1.704639 -4.115362 1.04
v 1.945056 -3.874946 0
v 1.945056 -3.874946 1.04
v 1.111521 -3.420911 0
v 1.111521 -3.420911 1.04
v 1.386587 -3.221063 0
v 1.386587 -3.221063 1.04
v 0.6343422 -2.642225 0
v 0.6343422 -2.642225 1.04
v 0.9372845 -2.487868 0
v 0.9372845 -2.487868 1.04
v 0.2848511 -1.798479 0
v 0.2848511 -1.798479 1.04
v 0.6082101 -1.693413 0
v 0.6082101 -1.693413 1.04
v 0.07165384 -0.910448 0
v 0.07165384 -0.910448 1.04
v 0.4074678 -0.8572603 0
v 0.4074678 -0.8572603 1.04

vt 0 0
vt 0 0.913264
vt 1.04 0
vt 1.04 0.913264
vt 0 0.8865878
vt 0 0.02667602
vt -1.04 0.8865878
vt -1.04 0.02667602
vt 0 0.9020202
vt 0 1.815284
vt 1.04 0.9020202
vt 1.04 1.815284
vt 0 1.788608
vt 0 0.9286962
vt -1.04 1.788608
vt -1.04 0.9286962
vt 0 1.770586
vt 0 2.68385
vt 1.04 1.770586
vt 1.04 2.68385
vt 0 2.657173
vt 0 1.797262
vt -1.04 2.657173
vt -1.04 1.797262
vt 0 2.58431
vt 0 3.497574
vt 1.04 2.58431
vt 1.04 3.497574
vt 0 3.470897
vt 0 2.610986
vt -1.04 3.470897
vt -1.04 2.610986
vt 0 3.323156
vt 0 4.23642
vt 1.04 3.323156
vt 1.04 4.23642
vt 0 4.209744
vt 0 3.349832
vt -1.04 4.209744
vt -1.04 3.349832
vt -3.968931 0
vt -4.882195 0
vt -3.968931 1.04
vt -4.882195 1.04
vt 4.855518 0
vt 3.995607 0
vt 4.855518 1.04
vt 3.995607 1.04
vt -4.505733 0
vt -5.418997 0
vt -4.505733 1.04
vt -5.418997 1.04
vt 5.392322 0
vt 4.53241 0
vt 5.392322 1.04
vt 4.53241 1.04
vt -4.920347 0
vt -5.833611 0
vt -4.920347 1.04
vt -5.833611 1.04
vt 5.806937 0
vt 4.947025 0
vt 5.806937 1.04
vt 4.947025 1.04
vt -5.202562 0
vt -6.115826 0
vt -5.202562 1.04
vt -6.115826 1.04
vt 6.089148 0
vt 5.229237 0
vt 6.089148 1.04
vt 5.229237 1.04
vt -5.345427 0
vt -6.258691 0
vt -5.345427 1.04
vt -6.258691 1.04
vt 6.232014 0
vt 5.372101 0
vt 6.232014 1.04
vt 5.372101 1.04
vt 0 -3.323155
vt 0 -4.236419
vt -1.04 -3.323155
vt -1.04 -4.236419
vt 0 -4.20975
vt 0 -3.349837
vt 1.04 -4.20975
vt 1.04 -3.349837
vt 0 -2.584311
vt 0 -3.497574
vt -1.04 -2.584311
vt -1.04 -3.497574
vt 0 -3.470892
vt 0 -2.610981
vt 1.04 -3.470892
vt 1.04 -2.610981
vt 0 -1.770586
vt 0 -2.68385
vt -1.04 -1.770586
vt -1.04 -2.68385
vt 0 -2.657172
vt 0 -1.79726
vt 1.04 -2.657172
vt 1.04 -1.79726
vt 0 -0.9020131
vt 0 -1.815277
vt -1.04 -0.9020131
vt -1.04 -1.815277
vt 0 -1.788611
vt 0 -0.928699
vt 1.04 -1.788611
vt 1.04 -0.928699
vt 0 -0.9132699
vt -1.04 -5.57648E-06
vt -1.04 -0.9132699
vt 0 -0.8865852
vt 0 -0.02667314
vt 1.04 -0.8865852
vt 1.04 -0.02667314
vt -1.04 0.9132704
vt 1.04 0.02667498
vt 1.04 0.8865857
vt -1.04 1.815278
vt -1.04 0.9020133
vt 1.04 0.9286992
vt 1.04 1.788611
vt -1.04 2.68385
vt -1.04 1.770585
vt 1.04 1.797259
vt 1.04 2.657171
vt -1.04 3.497574
vt -1.04 2.584311
vt 1.04 2.610985
vt 1.04 3.470895
vt -1.04 4.236421
vt -1.04 3.323157
vt 1.04 3.349838
vt 1.04 4.20975
vt 4.882194 0
vt 3.968931 0
vt 4.882194 1.04
vt 3.968931 1.04
vt -3.995607 0
vt -4.855518 0
vt -3.995607 1.04
vt -4.855518 1.04
vt 5.418992 0
vt 4.505728 0
vt 5.418992 1.04
vt 4.505728 1.04
vt -4.532403 0
vt -5.392315 0
vt -4.532403 1.04
vt -5.392315 1.04
vt 5.833612 0
vt 4.920348 0
vt 5.833612 1.04
vt 4.920348 1.04
vt -4.947025 0
vt -5.806937 0
vt -4.947025 1.04
vt -5.806937 1.04
vt 6.115826 0
vt 5.202562 0
vt 6.115826 1.04
vt 5.202562 1.04
vt -5.229239 0
vt -6.089151 0
vt -5.229239 1.04
vt -6.089151 1.04
vt 6.258692 0
vt 5.345428 0
vt 6.258692 1.04
vt 5.345428 1.04
vt -5.372101 0
vt -6.232014 0
vt -5.372101 1.04
vt -6.232014 1.04
vt 1.04 -4.23642
vt 1.04 -3.323156
vt -1.04 -3.349832
vt -1.04 -4.209744
vt 1.04 -3.497574
vt 1.04 -2.58431
vt -1.04 -2.610986
vt -1.04 -3.470898
vt 1.04 -2.68385
vt 1.04 -1.770585
vt -1.04 -1.797261
vt -1.04 -2.657174
vt 1.04 -1.815284
vt 1.04 -0.9020196
vt -1.04 -0.9286956
vt -1.04 -1.788607
vt 1.04 -0.9132633
vt -1.04 -0.02667506
vt -1.04 -0.8865871
vt 0.07165384 0.9104487
vt 0.3400002 0
vt 0.4074678 0.8572609
vt -0.07165384 0.9104487
vt -0.4074678 0.8572609
vt -0.3400002 0
vt 0.2848511 1.798479
vt 0.6082101 1.693413
vt -0.2848511 1.798479
vt -0.6082101 1.693413
vt 0.6343422 2.642225
vt 0.9372845 2.487868
vt -0.6343422 2.642225
vt -0.9372845 2.487868
vt 1.111521 3.42091
vt 1.386587 3.221063
vt -1.111521 3.42091
vt -1.386587 3.221063
vt 1.704638 4.115362
vt 1.945055 3.874945
vt -1.704638 4.115362
vt -1.945055 3.874945
vt 2.39909 4.708479
vt 2.598937 4.433413
vt -2.39909 4.708479
vt -2.598937 4.433413
vt 3.177775 5.185658
vt 3.332132 4.882716
vt -3.177775 5.185658
vt -3.332132 4.882716
vt 4.021522 5.535149
vt 4.126587 5.21179
vt -4.021522 5.535149
vt -4.126587 5.21179
vt 4.909552 5.748346
vt 4.962739 5.412532
vt -4.909552 5.748346
vt -4.962739 5.412532
vt 5.820001 5.82
vt 5.820001 5.48
vt -5.820001 5.82
vt -5.820001 5.48
vt 6.730449 5.748346
vt 6.677261 5.412532
vt -6.730449 5.748346
vt -6.677261 5.412532
vt 7.618479 5.535149
vt 7.513413 5.21179
vt -7.618479 5.535149
vt -7.513413 5.21179
vt 8.462225 5.185658
vt 8.307867 4.882716
vt -8.462225 5.185658
vt -8.307867 4.882716
vt 9.24091 4.708479
vt 9.041063 4.433413
vt -9.24091 4.708479
vt -9.041063 4.433413
vt 9.935362 4.115362
vt 9.694945 3.874945
vt -9.935362 4.115362
vt -9.694945 3.874945
vt 10.52848 3.42091
vt 10.25341 3.221063
vt -10.52848 3.42091
vt -10.25341 3.221063
vt 11.00566 2.642225
vt 10.70272 2.487868
vt -11.00566 2.642225
vt -10.70272 2.487868
vt 11.35515 1.798479
vt 11.03179 1.693413
vt -11.35515 1.798479
vt -11.03179 1.693413
vt 11.56835 0.9104485
vt 11.23253 0.8572608
vt -11.56835 0.9104485
vt -11.23253 0.8572608
vt 11.64 -5.088006E-07
vt 11.3 -4.790768E-07
vt -11.64 -5.088006E-07
vt -11.3 -4.790768E-07
vt 11.56835 -0.9104481
vt 11.23253 -0.8572603
vt -11.56835 -0.9104481
vt -11.23253 -0.8572603
vt 11.35515 -1.798479
vt 11.03179 -1.693413
vt -11.35515 -1.798479
vt -11.03179 -1.693413
vt 11.00566 -2.642225
vt 10.70272 -2.487868
vt -11.00566 -2.642225
vt -10.70272 -2.487868
vt 10.52848 -3.42091
vt 10.25341 -3.221062
vt -10.52848 -3.42091
vt -10.25341 -3.221062
vt 9.935362 -4.115361
vt 9.694945 -3.874945
vt -9.935362 -4.115361
vt -9.694945 -3.874945
vt 9.240911 -4.708478
vt 9.041064 -4.433412
vt -9.240911 -4.708478
vt -9.041064 -4.433412
vt 8.462226 -5.185658
vt 8.307869 -4.882716
vt -8.462226 -5.185658
vt -8.307869 -4.882716
vt 7.61848 -5.535149
vt 7.513414 -5.21179
vt -7.61848 -5.535149
vt -7.513414 -5.21179
vt 6.730449 -5.748346
vt 6.677261 -5.412532
vt -6.730449 -5.748346
vt -6.677261 -5.412532
vt 5.82 -5.82
vt 5.82 -5.48
vt -5.82 -5.82
vt -5.82 -5.48
vt 4.909551 -5.748346
vt 4.962739 -5.412532
vt -4.909551 -5.748346
vt -4.962739 -5.412532
vt 4.021521 -5.535149
vt 4.126586 -5.21179
vt -4.021521 -5.535149
vt -4.126586 -5.21179
vt 3.177777 -5.185659
vt 3.332134 -4.882717
vt -3.177777 -5.185659
vt -3.332134 -4.882717
vt 2.399091 -4.70848
vt 2.598938 -4.433414
vt -2.399091 -4.70848
vt -2.598938 -4.433414
vt 1.704639 -4.115362
vt 1.945056 -3.874946
vt -1.704639 -4.115362
vt -1.945056 -3.874946
vt 1.111521 -3.420911
vt 1.386587 -3.221063
vt -1.111521 -3.420911
vt -1.386587 -3.221063
vt 0.6343422 -2.642225
vt 0.9372845 -2.487868
vt -0.6343422 -2.642225
vt -0.9372845 -2.487868
vt 0.2848511 -1.798479
vt 0.6082101 -1.693413
vt -0.2848511 -1.798479
vt -0.6082101 -1.693413
vt 0.07165384 -0.910448
vt 0.4074678 -0.8572603
vt -0.07165384 -0.910448
vt -0.4074678 -0.8572603

vn -0.9969173 0.07845907 0
vn 0.9969174 -0.07845885 0
vn -0.9723699 0.2334454 0
vn 0.97237 -0.2334452 0
vn -0.9238794 0.3826836 0
vn 0.9238793 -0.3826839 0
vn -0.8526402 0.5224986 0
vn 0.8526402 -0.5224985 0
vn -0.7604062 0.6494478 0
vn 0.7604061 -0.649448 0
vn -0.649448 0.760406 0
vn 0.6494481 -0.7604059 0
vn -0.5224984 0.8526403 0
vn 0.5224985 -0.8526402 0
vn -0.3826835 0.9238796 0
vn 0.3826839 -0.9238794 0
vn -0.2334454 0.9723699 0
vn 0.2334452 -0.97237 0
vn -0.07845905 0.9969174 0
vn 0.07845879 -0.9969174 0
vn 0.07845912 0.9969173 0
vn -0.07845892 -0.9969174 0
vn 0.2334454 0.9723699 0
vn -0.2334452 -0.97237 0
vn 0.382683 0.9238797 0
vn -0.3826837 -0.9238794 0
vn 0.5224993 0.8526396 0
vn -0.5224985 -0.8526402 0
vn 0.6494474 0.7604066 0
vn -0.649448 -0.7604061 0
vn 0.7604061 0.649448 0
vn -0.7604056 -0.6494485 0
vn 0.8526402 0.5224986 0
vn -0.8526405 -0.5224982 0
vn 0.9238795 0.3826835 0
vn -0.9238796 -0.3826833 0
vn 0.9723701 0.2334448 0
vn -0.9723698 -0.2334456 0
vn 0.9969173 0.07845957 0
vn -0.9969174 -0.07845882 0
vn 0 0 1
vn 0 0 -1

usemtl ProBuilderDefault
f 3/3/1 4/4/1 2/2/1 1/1/1
f 7/7/2 8/8/2 6/6/2 5/5/2
f 4/11/3 10/12/3 9/10/3 2/9/3
f 12/15/4 7/16/4 5/14/4 11/13/4
f 10/19/5 14/20/5 13/18/5 9/17/5
f 16/23/6 12/24/6 11/22/6 15/21/6
f 14/27/7 18/28/7 17/26/7 13/25/7
f 20/31/8 16/32/8 15/30/8 19/29/8
f 18/35/9 22/36/9 21/34/9 17/33/9
f 24/39/10 20/40/10 19/38/10 23/37/10
f 22/43/11 26/44/11 25/42/11 21/41/11
f 28/47/12 24/48/12 23/46/12 27/45/12
f 26/51/13 30/52/13 29/50/13 25/49/13
f 32/55/14 28/56/14 27/54/14 31/53/14
f 30/59/15 34/60/15 33/58/15 29/57/15
f 36/63/16 32/64/16 31/62/16 35/61/16
f 34/67/17 38/68/17 37/66/17 33/65/17
f 40/71/18 36/72/18 35/70/18 39/69/18
f 38/75/19 42/76/19 41/74/19 37/73/19
f 44/79/20 40/80/20 39/78/20 43/77/20
f 42/75/21 46/76/21 45/74/21 41/73/21
f 48/79/22 44/80/22 43/78/22 47/77/22
f 46/67/23 50/68/23 49/66/23 45/65/23
f 52/71/24 48/72/24 47/70/24 51/69/24
f 50/59/25 54/60/25 53/58/25 49/57/25
f 56/63/26 52/64/26 51/62/26 55/61/26
f 54/51/27 58/52/27 57/50/27 53/49/27
f 60/55/28 56/56/28 55/54/28 59/53/28
f 58/43/29 62/44/29 61/42/29 57/41/29
f 64/47/30 60/48/30 59/46/30 63/45/30
f 62/83/31 66/84/31 65/82/31 61/81/31
f 68/87/32 64/88/32 63/86/32 67/85/32
f 66/91/33 70/92/33 69/90/33 65/89/33
f 72/95/34 68/96/34 67/94/34 71/93/34
f 70/99/35 74/100/35 73/98/35 69/97/35
f 76/103/36 72/104/36 71/102/36 75/101/36
f 74/107/37 78/108/37 77/106/37 73/105/37
f 80/111/38 76/112/38 75/110/38 79/109/38
f 78/114/39 82/115/39 81/113/39 77/1/39
f 84/118/40 80/119/40 79/117/40 83/116/40
f 82/120/2 86/114/2 85/1/2 81/2/2
f 88/121/1 84/122/1 83/5/1 87/6/1
f 86/123/4 90/124/4 89/9/4 85/10/4
f 92/125/3 88/126/3 87/13/3 91/14/3
f 90/127/6 94/128/6 93/17/6 89/18/6
f 96/129/5 92/130/5 91/21/5 95/22/5
f 94/131/8 98/132/8 97/25/8 93/26/8
f 100/133/7 96/134/7 95/29/7 99/30/7
f 98/135/10 102/136/10 101/33/10 97/34/10
f 104/137/9 100/138/9 99/37/9 103/38/9
f 102/141/12 106/142/12 105/140/12 101/139/12
f 108/145/11 104/146/11 103/144/11 107/143/11
f 106/149/14 110/150/14 109/148/14 105/147/14
f 112/153/13 108/154/13 107/152/13 111/151/13
f 110/157/16 114/158/16 113/156/16 109/155/16
f 116/161/15 112/162/15 111/160/15 115/159/15
f 114/165/18 118/166/18 117/164/18 113/163/18
f 120/169/17 116/170/17 115/168/17 119/167/17
f 118/173/20 122/174/20 121/172/20 117/171/20
f 124/177/19 120/178/19 119/176/19 123/175/19
f 122/173/22 126/174/22 125/172/22 121/171/22
f 128/177/21 124/178/21 123/176/21 127/175/21
f 126/165/24 130/166/24 129/164/24 125/163/24
f 132/169/23 128/170/23 127/168/23 131/167/23
f 130/157/26 134/158/26 133/156/26 129/155/26
f 136/161/25 132/162/25 131/160/25 135/159/25
f 134/149/28 138/150/28 137/148/28 133/147/28
f 140/153/27 136/154/27 135/152/27 139/151/27
f 138/141/30 142/142/30 141/140/30 137/139/30
f 144/145/29 140/146/29 139/144/29 143/143/29
f 142/179/32 146/180/32 145/81/32 141/82/32
f 148/181/31 144/182/31 143/85/31 147/86/31
f 146/183/34 150/184/34 149/89/34 145/90/34
f 152/185/33 148/186/33 147/93/33 151/94/33
f 150/187/36 154/188/36 153/97/36 149/98/36
f 156/189/35 152/190/35 151/101/35 155/102/35
f 154/191/38 158/192/38 157/105/38 153/106/38
f 160/193/37 156/194/37 155/109/37 159/110/37
f 158/195/40 3/3/40 1/1/40 157/113/40
f 8/196/39 160/197/39 159/116/39 6/117/39
f 8/199/41 7/200/41 4/198/41 3/1/41
f 5/202/42 6/203/42 1/1/42 2/201/42
f 7/200/41 12/205/41 10/204/41 4/198/41
f 11/207/42 5/202/42 2/201/42 9/206/42
f 12/205/41 16/209/41 14/208/41 10/204/41
f 15/211/42 11/207/42 9/206/42 13/210/42
f 16/209/41 20/213/41 18/212/41 14/208/41
f 19/215/42 15/211/42 13/210/42 17/214/42
f 20/213/41 24/217/41 22/216/41 18/212/41
f 23/219/42 19/215/42 17/214/42 21/218/42
f 24/217/41 28/221/41 26/220/41 22/216/41
f 27/223/42 23/219/42 21/218/42 25/222/42
f 28/221/41 32/225/41 30/224/41 26/220/41
f 31/227/42 27/223/42 25/222/42 29/226/42
f 32/225/41 36/229/41 34/228/41 30/224/41
f 35/231/42 31/227/42 29/226/42 33/230/42
f 36/229/41 40/233/41 38/232/41 34/228/41
f 39/235/42 35/231/42 33/230/42 37/234/42
f 40/233/41 44/237/41 42/236/41 38/232/41
f 43/239/42 39/235/42 37/234/42 41/238/42
f 44/237/41 48/241/41 46/240/41 42/236/41
f 47/243/42 43/239/42 41/238/42 45/242/42
f 48/241/41 52/245/41 50/244/41 46/240/41
f 51/247/42 47/243/42 45/242/42 49/246/42
f 52/245/41 56/249/41 54/248/41 50/244/41
f 55/251/42 51/247/42 49/246/42 53/250/42
f 56/249/41 60/253/41 58/252/41 54/248/41
f 59/255/42 55/251/42 53/250/42 57/254/42
f 60/253/41 64/257/41 62/256/41 58/252/41
f 63/259/42 59/255/42 57/254/42 61/258/42
f 64/257/41 68/261/41 66/260/41 62/256/41
f 67/263/42 63/259/42 61/258/42 65/262/42
f 68/261/41 72/265/41 70/264/41 66/260/41
f 71/267/42 67/263/42 65/262/42 69/266/42
f 72/265/41 76/269/41 74/268/41 70/264/41
f 75/271/42 71/267/42 69/266/42 73/270/42
f 76/269/41 80/273/41 78/272/41 74/268/41
f 79/275/42 75/271/42 73/270/42 77/274/42
f 80/273/41 84/277/41 82/276/41 78/272/41
f 83/279/42 79/275/42 77/274/42 81/278/42
f 84/277/41 88/281/41 86/280/41 82/276/41
f 87/283/42 83/279/42 81/278/42 85/282/42
f 88/281/41 92/285/41 90/284/41 86/280/41
f 91/287/42 87/283/42 85/282/42 89/286/42
f 92/285/41 96/289/41 94/288/41 90/284/41
f 95/291/42 91/287/42 89/286/42 93/290/42
f 96/289/41 100/293/41 98/292/41 94/288/41
f 99/295/42 95/291/42 93/290/42 97/294/42
f 100/293/41 104/297/41 102/296/41 98/292/41
f 103/299/42 99/295/42 97/294/42 101/298/42
f 104/297/41 108/301/41 106/300/41 102/296/41
f 107/303/42 103/299/42 101/298/42 105/302/42
f 108/301/41 112/305/41 110/304/41 106/300/41
f 111/307/42 107/303/42 105/302/42 109/306/42
f 112/305/41 116/309/41 114/308/41 110/304/41
f 115/311/42 111/307/42 109/306/42 113/310/42
f 116/309/41 120/313/41 118/312/41 114/308/41
f 119/315/42 115/311/42 113/310/42 117/314/42
f 120/313/41 124/317/41 122/316/41 118/312/41
f 123/319/42 119/315/42 117/314/42 121/318/42
f 124/317/41 128/321/41 126/320/41 122/316/41
f 127/323/42 123/319/42 121/318/42 125/322/42
f 128/321/41 132/325/41 130/324/41 126/320/41
f 131/327/42 127/323/42 125/322/42 129/326/42
f 132/325/41 136/329/41 134/328/41 130/324/41
f 135/331/42 131/327/42 129/326/42 133/330/42
f 136/329/41 140/333/41 138/332/41 134/328/41
f 139/335/42 135/331/42 133/330/42 137/334/42
f 140/333/41 144/337/41 142/336/41 138/332/41
f 143/339/42 139/335/42 137/334/42 141/338/42
f 144/337/41 148/341/41 146/340/41 142/336/41
f 147/343/42 143/339/42 141/338/42 145/342/42
f 148/341/41 152/345/41 150/344/41 146/340/41
f 151/347/42 147/343/42 145/342/42 149/346/42
f 152/345/41 156/349/41 154/348/41 150/344/41
f 155/351/42 151/347/42 149/346/42 153/350/42
f 156/349/41 160/353/41 158/352/41 154/348/41
f 159/355/42 155/351/42 153/350/42 157/354/42
f 160/353/41 8/199/41 3/1/41 158/352/41
f 6/203/42 159/355/42 157/354/42 1/1/42

