# ProBuilder 4.2.3
# https://unity3d.com/unity/features/worldbuilding/probuilder
# 12.09.2021 9:30:45

mtllib ./Arch.mtl
o Arch

g Arch
v -1.54 -2.520134 -0.52
v -1.538006 -2.367784 -0.52
v -1.54 -2.520134 0.52
v -1.538006 -2.367784 0.52
v -1.198122 -2.376684 -0.52
v -1.2 -2.520134 -0.52
v -1.198122 -2.376684 0.52
v -1.2 -2.520134 0.52
v -1.532024 -2.215539 -0.52
v -1.532024 -2.215539 0.52
v -1.19249 -2.233333 -0.52
v -1.19249 -2.233333 0.52
v -1.522059 -2.063502 -0.52
v -1.522059 -2.063502 0.52
v -1.183107 -2.090178 -0.52
v -1.183107 -2.090178 0.52
v -1.508118 -1.911778 -0.52
v -1.508118 -1.911778 0.52
v -1.16998 -1.947318 -0.52
v -1.16998 -1.947318 0.52
v -1.490209 -1.760472 -0.52
v -1.490209 -1.760472 0.52
v -1.153118 -1.804851 -0.52
v -1.153118 -1.804851 0.52
v -1.468346 -1.609686 -0.52
v -1.468346 -1.609686 0.52
v -1.132532 -1.662873 -0.52
v -1.132532 -1.662873 0.52
v -1.442544 -1.459523 -0.52
v -1.442544 -1.459523 0.52
v -1.108237 -1.521484 -0.52
v -1.108237 -1.521484 0.52
v -1.412819 -1.310088 -0.52
v -1.412819 -1.310088 0.52
v -1.080249 -1.380778 -0.52
v -1.080249 -1.380778 0.52
v -1.379193 -1.161482 -0.52
v -1.379193 -1.161482 0.52
v -1.048587 -1.240854 -0.52
v -1.048587 -1.240854 0.52
v -1.341688 -1.013807 -0.52
v -1.341688 -1.013807 0.52
v -1.013273 -1.101806 -0.52
v -1.013273 -1.101806 0.52
v -1.300331 -0.8671647 -0.52
v -1.300331 -0.8671647 0.52
v -0.9743321 -0.9637301 -0.52
v -0.9743321 -0.9637301 0.52
v -1.255149 -0.7216552 -0.52
v -1.255149 -0.7216552 0.52
v -0.9317901 -0.8267211 -0.52
v -0.9317901 -0.8267211 0.52
v -1.206174 -0.5773782 -0.52
v -1.206174 -0.5773782 0.52
v -0.8856757 -0.6908726 -0.52
v -0.8856757 -0.6908726 0.52
v -1.153438 -0.4344327 -0.52
v -1.153438 -0.4344327 0.52
v -0.8360207 -0.5562779 -0.52
v -0.8360207 -0.5562779 0.52
v -1.096979 -0.2929165 -0.52
v -1.096979 -0.2929165 0.52
v -0.7828596 -0.4230289 -0.52
v -0.7828596 -0.4230289 0.52
v -1.036834 -0.1529269 -0.52
v -1.036834 -0.1529269 0.52
v -0.726229 -0.2912173 -0.52
v -0.726229 -0.2912173 0.52
v -0.9730465 -0.01455951 -0.52
v -0.9730465 -0.01455951 0.52
v -0.6661675 -0.1609335 -0.52
v -0.6661675 -0.1609335 0.52
v -0.905658 0.1220906 -0.52
v -0.905658 0.1220906 0.52
v -0.6027157 -0.03226638 -0.52
v -0.6027157 -0.03226638 0.52
v -0.8347161 0.2569299 -0.52
v -0.8347161 0.2569299 0.52
v -0.535918 0.09469581 -0.52
v -0.535918 0.09469581 0.52
v -0.760268 0.3898659 -0.52
v -0.760268 0.3898659 0.52
v -0.4658191 0.2198658 -0.52
v -0.4658191 0.2198658 0.52
v -0.6823657 0.5208075 -0.52
v -0.6823657 0.5208075 0.52
v -0.3924682 0.3431578 -0.52
v -0.3924682 0.3431578 0.52
v -0.601063 0.6496651 -0.52
v -0.601063 0.6496651 0.52
v -0.3159149 0.4644878 -0.52
v -0.3159149 0.4644878 0.52
v -0.5164144 0.7763503 -0.52
v -0.5164144 0.7763503 0.52
v -0.2362115 0.5837719 -0.52
v -0.2362115 0.5837719 0.52
v -0.428479 0.9007759 -0.52
v -0.428479 0.9007759 0.52
v -0.1534131 0.7009289 -0.52
v -0.1534131 0.7009289 0.52
v -0.3373163 1.022857 -0.52
v -0.3373163 1.022857 0.52
v -0.06757617 0.8158784 -0.52
v -0.06757617 0.8158784 0.52
v -0.2429893 1.14251 -0.52
v -0.2429893 1.14251 0.52
v 0.02124047 0.9285414 -0.52
v 0.02124047 0.9285414 0.52
v -0.1455629 1.259654 -0.52
v -0.1455629 1.259654 0.52
v 0.1129754 1.038841 -0.52
v 0.1129754 1.038841 0.52
v -0.04510283 1.374206 -0.52
v -0.04510283 1.374206 0.52
v 0.2075665 1.146702 -0.52
v 0.2075665 1.146702 0.52
v 0.05832076 1.486089 -0.52
v 0.05832076 1.486089 0.52
v 0.3049483 1.252049 -0.52
v 0.3049483 1.252049 0.52
v 0.1646383 1.595227 -0.52
v 0.1646383 1.595227 0.52
v 0.4050548 1.354811 -0.52
v 0.4050548 1.354811 0.52
v 0.2737763 1.701545 -0.52
v 0.2737763 1.701545 0.52
v 0.507817 1.454917 -0.52
v 0.507817 1.454917 0.52
v 0.3856599 1.804969 -0.52
v 0.3856599 1.804969 0.52
v 0.6131644 1.5523 -0.52
v 0.6131644 1.5523 0.52
v 0.5002122 1.905429 -0.52
v 0.5002122 1.905429 0.52
v 0.7210248 1.64689 -0.52
v 0.7210248 1.64689 0.52
v 0.6173549 2.002855 -0.52
v 0.6173549 2.002855 0.52
v 0.8313239 1.738625 -0.52
v 0.8313239 1.738625 0.52
v 0.7370083 2.097182 -0.52
v 0.7370083 2.097182 0.52
v 0.9439874 1.827442 -0.52
v 0.9439874 1.827442 0.52
v 0.8590894 2.188345 -0.52
v 0.8590894 2.188345 0.52
v 1.058937 1.913279 -0.52
v 1.058937 1.913279 0.52
v 0.9835155 2.27628 -0.52
v 0.9835155 2.27628 0.52
v 1.176094 1.996077 -0.52
v 1.176094 1.996077 0.52
v 1.110201 2.360929 -0.52
v 1.110201 2.360929 0.52
v 1.295378 2.075781 -0.52
v 1.295378 2.075781 0.52
v 1.239058 2.442231 -0.52
v 1.239058 2.442231 0.52
v 1.416708 2.152334 -0.52
v 1.416708 2.152334 0.52
v 1.37 2.520134 -0.52
v 1.37 2.520134 0.52
v 1.54 2.225685 -0.52
v 1.54 2.225685 0.52

vt -0.52 -2.540074
vt -0.52 -2.387711
vt 0.52 -2.540074
vt 0.52 -2.387711
vt 0.52 -2.392163
vt 0.52 -2.535625
vt -0.52 -2.392163
vt -0.52 -2.535625
vt -1.54 0.52
vt -1.2 0.52
vt -1.54 -0.52
vt -1.2 -0.52
vt -0.52 -2.426342
vt -0.52 -2.27398
vt 0.52 -2.426342
vt 0.52 -2.27398
vt 0.52 -2.278429
vt 0.52 -2.421891
vt -0.52 -2.278429
vt -0.52 -2.421891
vt -0.52 -2.310998
vt -0.52 -2.158635
vt 0.52 -2.310998
vt 0.52 -2.158635
vt 0.52 -2.163084
vt 0.52 -2.306546
vt -0.52 -2.163084
vt -0.52 -2.306546
vt -0.52 -2.194111
vt -0.52 -2.041748
vt 0.52 -2.194111
vt 0.52 -2.041748
vt 0.52 -2.0462
vt 0.52 -2.189662
vt -0.52 -2.0462
vt -0.52 -2.189662
vt -0.52 -2.075789
vt -0.52 -1.923426
vt 0.52 -2.075789
vt 0.52 -1.923426
vt 0.52 -1.927876
vt 0.52 -2.071338
vt -0.52 -1.927876
vt -0.52 -2.071338
vt -0.52 -1.956087
vt -0.52 -1.803725
vt 0.52 -1.956087
vt 0.52 -1.803725
vt 0.52 -1.808174
vt 0.52 -1.951636
vt -0.52 -1.808174
vt -0.52 -1.951636
vt -0.52 -1.835099
vt -0.52 -1.682737
vt 0.52 -1.835099
vt 0.52 -1.682737
vt 0.52 -1.687188
vt 0.52 -1.830649
vt -0.52 -1.687188
vt -0.52 -1.830649
vt -0.52 -1.712906
vt -0.52 -1.560543
vt 0.52 -1.712906
vt 0.52 -1.560543
vt 0.52 -1.564992
vt 0.52 -1.708454
vt -0.52 -1.564992
vt -0.52 -1.708454
vt -0.52 -1.58959
vt -0.52 -1.437227
vt 0.52 -1.58959
vt 0.52 -1.437227
vt 0.52 -1.441679
vt 0.52 -1.585141
vt -0.52 -1.441679
vt -0.52 -1.585141
vt -0.52 -1.465237
vt -0.52 -1.312874
vt 0.52 -1.465237
vt 0.52 -1.312874
vt 0.52 -1.317325
vt 0.52 -1.460787
vt -0.52 -1.317325
vt -0.52 -1.460787
vt -0.52 -1.33993
vt -0.52 -1.187567
vt 0.52 -1.33993
vt 0.52 -1.187567
vt 0.52 -1.19202
vt 0.52 -1.335482
vt -0.52 -1.19202
vt -0.52 -1.335482
vt -0.52 -1.213764
vt -0.52 -1.061401
vt 0.52 -1.213764
vt 0.52 -1.061401
vt 0.52 -1.065848
vt 0.52 -1.20931
vt -0.52 -1.065848
vt -0.52 -1.20931
vt -0.52 -1.086812
vt -0.52 -0.9344485
vt 0.52 -1.086812
vt 0.52 -0.9344485
vt 0.52 -0.9388995
vt 0.52 -1.082362
vt -0.52 -0.9388995
vt -0.52 -1.082362
vt -0.52 -0.9591684
vt -0.52 -0.8068056
vt 0.52 -0.9591684
vt 0.52 -0.8068056
vt 0.52 -0.8112575
vt 0.52 -0.9547195
vt -0.52 -0.8112575
vt -0.52 -0.9547195
vt -0.52 -0.8309215
vt -0.52 -0.6785584
vt 0.52 -0.8309215
vt 0.52 -0.6785584
vt 0.52 -0.6830085
vt 0.52 -0.8264706
vt -0.52 -0.6830085
vt -0.52 -0.8264706
vt -0.52 -0.7021556
vt -0.52 -0.5497928
vt 0.52 -0.7021556
vt 0.52 -0.5497928
vt 0.52 -0.5542419
vt 0.52 -0.6977038
vt -0.52 -0.5542419
vt -0.52 -0.6977038
vt -0.52 -0.5729587
vt -0.52 -0.4205959
vt 0.52 -0.5729587
vt 0.52 -0.4205959
vt 0.52 -0.4250474
vt 0.52 -0.5685091
vt -0.52 -0.4250474
vt -0.52 -0.5685091
vt -0.52 -0.4434264
vt -0.52 -0.2910635
vt 0.52 -0.4434264
vt 0.52 -0.2910635
vt 0.52 -0.2955137
vt 0.52 -0.4389758
vt -0.52 -0.2955137
vt -0.52 -0.4389758
vt -0.52 -0.3136366
vt -0.52 -0.1612739
vt 0.52 -0.3136366
vt 0.52 -0.1612739
vt 0.52 -0.1657256
vt 0.52 -0.3091876
vt -0.52 -0.1657256
vt -0.52 -0.3091876
vt -0.52 -0.1836916
vt -0.52 -0.0313285
vt 0.52 -0.1836916
vt 0.52 -0.0313285
vt 0.52 -0.03577806
vt 0.52 -0.1792402
vt -0.52 -0.03577806
vt -0.52 -0.1792402
vt -0.52 -0.05366766
vt -0.52 0.09869533
vt 0.52 -0.05366766
vt 0.52 0.09869533
vt 0.52 0.09424604
vt 0.52 -0.04921567
vt -0.52 0.09424604
vt -0.52 -0.04921567
vt -0.52 0.07634331
vt -0.52 0.228706
vt 0.52 0.07634331
vt 0.52 0.228706
vt 0.52 0.2242541
vt 0.52 0.08079191
vt -0.52 0.2242541
vt -0.52 0.08079191
vt -0.52 0.2062427
vt -0.52 0.3586058
vt 0.52 0.2062427
vt 0.52 0.3586058
vt 0.52 0.3541559
vt 0.52 0.210694
vt -0.52 0.3541559
vt -0.52 0.210694
vt -0.52 0.3359534
vt -0.52 0.4883161
vt 0.52 0.3359534
vt 0.52 0.4883161
vt 0.52 0.4838657
vt 0.52 0.3404037
vt -0.52 0.4838657
vt -0.52 0.3404037
vt -0.52 0.4653803
vt -0.52 0.6177435
vt 0.52 0.4653803
vt 0.52 0.6177435
vt 0.52 0.613293
vt 0.52 0.469831
vt -0.52 0.613293
vt -0.52 0.469831
vt -0.52 0.594436
vt -0.52 0.7467988
vt 0.52 0.594436
vt 0.52 0.7467988
vt 0.52 0.7423483
vt 0.52 0.5988863
vt -0.52 0.7423483
vt -0.52 0.5988863
vt -0.52 0.7230354
vt -0.52 0.8753982
vt 0.52 0.7230354
vt 0.52 0.8753982
vt 0.52 0.8709462
vt 0.52 0.7274844
vt -0.52 0.8709462
vt -0.52 0.7274844
vt -0.52 0.8510805
vt -0.52 1.003443
vt 0.52 0.8510805
vt 0.52 1.003443
vt 0.52 0.9989941
vt 0.52 0.855532
vt -0.52 0.9989941
vt -0.52 0.855532
vt -0.52 0.9784962
vt -0.52 1.130859
vt 0.52 0.9784962
vt 0.52 1.130859
vt 0.52 1.126407
vt 0.52 0.9829453
vt -0.52 1.126407
vt -0.52 0.9829453
vt -0.52 1.105184
vt -0.52 1.257548
vt 0.52 1.105184
vt 0.52 1.257548
vt 0.52 1.253097
vt 0.52 1.109635
vt -0.52 1.253097
vt -0.52 1.109635
vt -1.231063 -0.52
vt -1.383426 -0.52
vt -1.231063 0.52
vt -1.383426 0.52
vt 1.378977 -0.52
vt 1.235515 -0.52
vt 1.378977 0.52
vt 1.235515 0.52
vt -1.356052 -0.52
vt -1.508415 -0.52
vt -1.356052 0.52
vt -1.508415 0.52
vt 1.503964 -0.52
vt 1.360502 -0.52
vt 1.503964 0.52
vt 1.360502 0.52
vt -1.480053 -0.52
vt -1.632416 -0.52
vt -1.480053 0.52
vt -1.632416 0.52
vt 1.627964 -0.52
vt 1.484502 -0.52
vt 1.627964 0.52
vt 1.484502 0.52
vt -1.602989 -0.52
vt -1.755351 -0.52
vt -1.602989 0.52
vt -1.755351 0.52
vt 1.750902 -0.52
vt 1.60744 -0.52
vt 1.750902 0.52
vt 1.60744 0.52
vt -1.724773 -0.52
vt -1.877137 -0.52
vt -1.724773 0.52
vt -1.877137 0.52
vt 1.872687 -0.52
vt 1.729225 -0.52
vt 1.872687 0.52
vt 1.729225 0.52
vt -1.845329 -0.52
vt -1.997692 -0.52
vt -1.845329 0.52
vt -1.997692 0.52
vt 1.99324 -0.52
vt 1.849778 -0.52
vt 1.99324 0.52
vt 1.849778 0.52
vt -1.964559 -0.52
vt -2.116922 -0.52
vt -1.964559 0.52
vt -2.116922 0.52
vt 2.112473 -0.52
vt 1.969011 -0.52
vt 2.112473 0.52
vt 1.969011 0.52
vt -2.082399 -0.52
vt -2.234762 -0.52
vt -2.082399 0.52
vt -2.234762 0.52
vt 2.230311 -0.52
vt 2.086849 -0.52
vt 2.230311 0.52
vt 2.086849 0.52
vt -2.198751 -0.52
vt -2.351114 -0.52
vt -2.198751 0.52
vt -2.351114 0.52
vt 2.346666 -0.52
vt 2.203205 -0.52
vt 2.346666 0.52
vt 2.203205 0.52
vt -2.313554 -0.52
vt -2.465918 -0.52
vt -2.313554 0.52
vt -2.465918 0.52
vt 2.461463 -0.52
vt 2.318001 -0.52
vt 2.461463 0.52
vt 2.318001 0.52
vt -0.52 1.1575
vt -0.52 1.497501
vt 0.52 1.1575
vt 0.52 1.497501
vt -1.54 -2.520134
vt -1.538006 -2.367784
vt -1.2 -2.520134
vt -1.198122 -2.376684
vt 1.538006 -2.367784
vt 1.54 -2.520134
vt 1.198122 -2.376684
vt 1.2 -2.520134
vt -1.532024 -2.215539
vt -1.19249 -2.233333
vt 1.532024 -2.215539
vt 1.19249 -2.233333
vt -1.522059 -2.063502
vt -1.183107 -2.090178
vt 1.522059 -2.063502
vt 1.183107 -2.090178
vt -1.508118 -1.911778
vt -1.16998 -1.947318
vt 1.508118 -1.911778
vt 1.16998 -1.947318
vt -1.490209 -1.760472
vt -1.153118 -1.804851
vt 1.490209 -1.760472
vt 1.153118 -1.804851
vt -1.468346 -1.609686
vt -1.132532 -1.662873
vt 1.468346 -1.609686
vt 1.132532 -1.662873
vt -1.442544 -1.459523
vt -1.108237 -1.521484
vt 1.442544 -1.459523
vt 1.108237 -1.521484
vt -1.412819 -1.310088
vt -1.080249 -1.380778
vt 1.412819 -1.310088
vt 1.080249 -1.380778
vt -1.379193 -1.161482
vt -1.048587 -1.240854
vt 1.379193 -1.161482
vt 1.048587 -1.240854
vt -1.341688 -1.013807
vt -1.013273 -1.101806
vt 1.341688 -1.013807
vt 1.013273 -1.101806
vt -1.300331 -0.8671647
vt -0.9743321 -0.9637301
vt 1.300331 -0.8671647
vt 0.9743321 -0.9637301
vt -1.255149 -0.7216552
vt -0.9317901 -0.8267211
vt 1.255149 -0.7216552
vt 0.9317901 -0.8267211
vt -1.206174 -0.5773782
vt -0.8856757 -0.6908726
vt 1.206174 -0.5773782
vt 0.8856757 -0.6908726
vt -1.153438 -0.4344327
vt -0.8360207 -0.5562779
vt 1.153438 -0.4344327
vt 0.8360207 -0.5562779
vt -1.096979 -0.2929165
vt -0.7828596 -0.4230289
vt 1.096979 -0.2929165
vt 0.7828596 -0.4230289
vt -1.036834 -0.1529269
vt -0.726229 -0.2912173
vt 1.036834 -0.1529269
vt 0.726229 -0.2912173
vt -0.9730465 -0.01455951
vt -0.6661675 -0.1609335
vt 0.9730465 -0.01455951
vt 0.6661675 -0.1609335
vt -0.905658 0.1220906
vt -0.6027157 -0.03226638
vt 0.905658 0.1220906
vt 0.6027157 -0.03226638
vt -0.8347161 0.2569299
vt -0.535918 0.09469581
vt 0.8347161 0.2569299
vt 0.535918 0.09469581
vt -0.760268 0.3898659
vt -0.4658191 0.2198658
vt 0.760268 0.3898659
vt 0.4658191 0.2198658
vt -0.6823657 0.5208075
vt -0.3924682 0.3431578
vt 0.6823657 0.5208075
vt 0.3924682 0.3431578
vt -0.601063 0.6496651
vt -0.3159149 0.4644878
vt 0.601063 0.6496651
vt 0.3159149 0.4644878
vt -0.5164144 0.7763503
vt -0.2362115 0.5837719
vt 0.5164144 0.7763503
vt 0.2362115 0.5837719
vt -0.428479 0.9007759
vt -0.1534131 0.7009289
vt 0.428479 0.9007759
vt 0.1534131 0.7009289
vt -0.3373163 1.022857
vt -0.06757617 0.8158784
vt 0.3373163 1.022857
vt 0.06757617 0.8158784
vt -0.2429893 1.14251
vt 0.02124047 0.9285414
vt 0.2429893 1.14251
vt -0.02124047 0.9285414
vt -0.1455629 1.259654
vt 0.1129754 1.038841
vt 0.1455629 1.259654
vt -0.1129754 1.038841
vt -0.04510283 1.374206
vt 0.2075665 1.146702
vt 0.04510283 1.374206
vt -0.2075665 1.146702
vt 0.05832076 1.486089
vt 0.3049483 1.252049
vt -0.05832076 1.486089
vt -0.3049483 1.252049
vt 0.1646383 1.595227
vt 0.4050548 1.354811
vt -0.1646383 1.595227
vt -0.4050548 1.354811
vt 0.2737763 1.701545
vt 0.507817 1.454917
vt -0.2737763 1.701545
vt -0.507817 1.454917
vt 0.3856599 1.804969
vt 0.6131644 1.5523
vt -0.3856599 1.804969
vt -0.6131644 1.5523
vt 0.5002122 1.905429
vt 0.7210248 1.64689
vt -0.5002122 1.905429
vt -0.7210248 1.64689
vt 0.6173549 2.002855
vt 0.8313239 1.738625
vt -0.6173549 2.002855
vt -0.8313239 1.738625
vt 0.7370083 2.097182
vt 0.9439874 1.827442
vt -0.7370083 2.097182
vt -0.9439874 1.827442
vt 0.8590894 2.188345
vt 1.058937 1.913279
vt -0.8590894 2.188345
vt -1.058937 1.913279
vt 0.9835155 2.27628
vt 1.176094 1.996077
vt -0.9835155 2.27628
vt -1.176094 1.996077
vt 1.110201 2.360929
vt 1.295378 2.075781
vt -1.110201 2.360929
vt -1.295378 2.075781
vt 1.239058 2.442231
vt 1.416708 2.152334
vt -1.239058 2.442231
vt -1.416708 2.152334
vt 1.37 2.520134
vt 1.54 2.225685
vt -1.37 2.520134
vt -1.54 2.225685

vn -0.9999143 0.01308804 0
vn 0.9999143 -0.01308907 0
vn 0 -1 0
vn -0.999229 0.03926105 0
vn 0.999229 -0.0392606 0
vn -0.9978588 0.06540581 0
vn 0.9978588 -0.06540547 0
vn -0.9958053 0.09149737 0
vn 0.9958053 -0.09149732 0
vn -0.9930683 0.1175389 0
vn 0.9930683 -0.117539 0
vn -0.9896514 0.1434928 0
vn 0.9896516 -0.1434913 0
vn -0.985556 0.1693498 0
vn 0.9855559 -0.1693504 0
vn -0.9807853 0.1950906 0
vn 0.9807854 -0.1950897 0
vn -0.9753423 0.2206975 0
vn 0.9753419 -0.2206996 0
vn -0.9692309 0.2461534 0
vn 0.969231 -0.246153 0
vn -0.962456 0.2714378 0
vn 0.9624552 -0.2714405 0
vn -0.9550194 0.2965436 0
vn 0.9550208 -0.2965387 0
vn -0.9469302 0.3214394 0
vn 0.94693 -0.32144 0
vn -0.9381914 0.346117 0
vn 0.9381905 -0.3461193 0
vn -0.9288092 0.3705585 0
vn 0.928809 -0.3705587 0
vn -0.9187909 0.3947447 0
vn 0.9187915 -0.3947431 0
vn -0.9081439 0.418658 0
vn 0.9081438 -0.4186585 0
vn -0.8968723 0.4422896 0
vn 0.8968723 -0.4422897 0
vn -0.8849889 0.4656122 0
vn 0.8849885 -0.4656129 0
vn -0.872495 0.4886231 0
vn 0.8724951 -0.4886229 0
vn -0.8594058 0.5112942 0
vn 0.8594068 -0.5112926 0
vn -0.8457292 0.5336124 0
vn 0.8457285 -0.5336136 0
vn -0.8314687 0.5555716 0
vn 0.8314689 -0.5555713 0
vn -0.8166413 0.5771456 0
vn 0.8166412 -0.5771458 0
vn -0.8012536 0.598325 0
vn 0.8012536 -0.5983248 0
vn -0.7853164 0.6190946 0
vn 0.7853161 -0.6190951 0
vn -0.7688435 0.639437 0
vn 0.7688429 -0.6394377 0
vn -0.7518391 0.6593466 0
vn 0.7518399 -0.6593457 0
vn -0.7343237 0.6787995 0
vn 0.7343228 -0.6788004 0
vn -0.716302 0.6977904 0
vn 0.7163021 -0.6977903 0
vn -0.6977888 0.7163036 0
vn 0.6977895 -0.7163029 0
vn -0.6788021 0.7343213 0
vn 0.6788023 -0.7343211 0
vn -0.6593456 0.75184 0
vn 0.6593446 -0.7518408 0
vn -0.6394386 0.7688422 0
vn 0.6394394 -0.7688416 0
vn -0.6190931 0.7853176 0
vn 0.6190935 -0.7853173 0
vn -0.5983265 0.8012524 0
vn 0.5983257 -0.8012531 0
vn -0.5771441 0.8166423 0
vn 0.577145 -0.8166417 0
vn -0.5555716 0.8314687 0
vn 0.5555713 -0.8314689 0
vn -0.5336131 0.8457287 0
vn 0.5336151 -0.8457275 0
vn -0.5112951 0.8594052 0
vn 0.5112928 -0.8594066 0
vn 0.8660255 0.4999999 0
vn 0 0 1
vn 0 0 -1

usemtl ProBuilderDefault
f 3/3/1 4/4/1 2/2/1 1/1/1
f 7/7/2 8/8/2 6/6/2 5/5/2
f 1/11/3 6/12/3 8/10/3 3/9/3
f 4/15/4 10/16/4 9/14/4 2/13/4
f 12/19/5 7/20/5 5/18/5 11/17/5
f 10/23/6 14/24/6 13/22/6 9/21/6
f 16/27/7 12/28/7 11/26/7 15/25/7
f 14/31/8 18/32/8 17/30/8 13/29/8
f 20/35/9 16/36/9 15/34/9 19/33/9
f 18/39/10 22/40/10 21/38/10 17/37/10
f 24/43/11 20/44/11 19/42/11 23/41/11
f 22/47/12 26/48/12 25/46/12 21/45/12
f 28/51/13 24/52/13 23/50/13 27/49/13
f 26/55/14 30/56/14 29/54/14 25/53/14
f 32/59/15 28/60/15 27/58/15 31/57/15
f 30/63/16 34/64/16 33/62/16 29/61/16
f 36/67/17 32/68/17 31/66/17 35/65/17
f 34/71/18 38/72/18 37/70/18 33/69/18
f 40/75/19 36/76/19 35/74/19 39/73/19
f 38/79/20 42/80/20 41/78/20 37/77/20
f 44/83/21 40/84/21 39/82/21 43/81/21
f 42/87/22 46/88/22 45/86/22 41/85/22
f 48/91/23 44/92/23 43/90/23 47/89/23
f 46/95/24 50/96/24 49/94/24 45/93/24
f 52/99/25 48/100/25 47/98/25 51/97/25
f 50/103/26 54/104/26 53/102/26 49/101/26
f 56/107/27 52/108/27 51/106/27 55/105/27
f 54/111/28 58/112/28 57/110/28 53/109/28
f 60/115/29 56/116/29 55/114/29 59/113/29
f 58/119/30 62/120/30 61/118/30 57/117/30
f 64/123/31 60/124/31 59/122/31 63/121/31
f 62/127/32 66/128/32 65/126/32 61/125/32
f 68/131/33 64/132/33 63/130/33 67/129/33
f 66/135/34 70/136/34 69/134/34 65/133/34
f 72/139/35 68/140/35 67/138/35 71/137/35
f 70/143/36 74/144/36 73/142/36 69/141/36
f 76/147/37 72/148/37 71/146/37 75/145/37
f 74/151/38 78/152/38 77/150/38 73/149/38
f 80/155/39 76/156/39 75/154/39 79/153/39
f 78/159/40 82/160/40 81/158/40 77/157/40
f 84/163/41 80/164/41 79/162/41 83/161/41
f 82/167/42 86/168/42 85/166/42 81/165/42
f 88/171/43 84/172/43 83/170/43 87/169/43
f 86/175/44 90/176/44 89/174/44 85/173/44
f 92/179/45 88/180/45 87/178/45 91/177/45
f 90/183/46 94/184/46 93/182/46 89/181/46
f 96/187/47 92/188/47 91/186/47 95/185/47
f 94/191/48 98/192/48 97/190/48 93/189/48
f 100/195/49 96/196/49 95/194/49 99/193/49
f 98/199/50 102/200/50 101/198/50 97/197/50
f 104/203/51 100/204/51 99/202/51 103/201/51
f 102/207/52 106/208/52 105/206/52 101/205/52
f 108/211/53 104/212/53 103/210/53 107/209/53
f 106/215/54 110/216/54 109/214/54 105/213/54
f 112/219/55 108/220/55 107/218/55 111/217/55
f 110/223/56 114/224/56 113/222/56 109/221/56
f 116/227/57 112/228/57 111/226/57 115/225/57
f 114/231/58 118/232/58 117/230/58 113/229/58
f 120/235/59 116/236/59 115/234/59 119/233/59
f 118/239/60 122/240/60 121/238/60 117/237/60
f 124/243/61 120/244/61 119/242/61 123/241/61
f 122/247/62 126/248/62 125/246/62 121/245/62
f 128/251/63 124/252/63 123/250/63 127/249/63
f 126/255/64 130/256/64 129/254/64 125/253/64
f 132/259/65 128/260/65 127/258/65 131/257/65
f 130/263/66 134/264/66 133/262/66 129/261/66
f 136/267/67 132/268/67 131/266/67 135/265/67
f 134/271/68 138/272/68 137/270/68 133/269/68
f 140/275/69 136/276/69 135/274/69 139/273/69
f 138/279/70 142/280/70 141/278/70 137/277/70
f 144/283/71 140/284/71 139/282/71 143/281/71
f 142/287/72 146/288/72 145/286/72 141/285/72
f 148/291/73 144/292/73 143/290/73 147/289/73
f 146/295/74 150/296/74 149/294/74 145/293/74
f 152/299/75 148/300/75 147/298/75 151/297/75
f 150/303/76 154/304/76 153/302/76 149/301/76
f 156/307/77 152/308/77 151/306/77 155/305/77
f 154/311/78 158/312/78 157/310/78 153/309/78
f 160/315/79 156/316/79 155/314/79 159/313/79
f 158/319/80 162/320/80 161/318/80 157/317/80
f 164/323/81 160/324/81 159/322/81 163/321/81
f 163/327/82 161/328/82 162/326/82 164/325/82
f 8/331/83 7/332/83 4/330/83 3/329/83
f 5/335/84 6/336/84 1/334/84 2/333/84
f 7/332/83 12/338/83 10/337/83 4/330/83
f 11/340/84 5/335/84 2/333/84 9/339/84
f 12/338/83 16/342/83 14/341/83 10/337/83
f 15/344/84 11/340/84 9/339/84 13/343/84
f 16/342/83 20/346/83 18/345/83 14/341/83
f 19/348/84 15/344/84 13/343/84 17/347/84
f 20/346/83 24/350/83 22/349/83 18/345/83
f 23/352/84 19/348/84 17/347/84 21/351/84
f 24/350/83 28/354/83 26/353/83 22/349/83
f 27/356/84 23/352/84 21/351/84 25/355/84
f 28/354/83 32/358/83 30/357/83 26/353/83
f 31/360/84 27/356/84 25/355/84 29/359/84
f 32/358/83 36/362/83 34/361/83 30/357/83
f 35/364/84 31/360/84 29/359/84 33/363/84
f 36/362/83 40/366/83 38/365/83 34/361/83
f 39/368/84 35/364/84 33/363/84 37/367/84
f 40/366/83 44/370/83 42/369/83 38/365/83
f 43/372/84 39/368/84 37/367/84 41/371/84
f 44/370/83 48/374/83 46/373/83 42/369/83
f 47/376/84 43/372/84 41/371/84 45/375/84
f 48/374/83 52/378/83 50/377/83 46/373/83
f 51/380/84 47/376/84 45/375/84 49/379/84
f 52/378/83 56/382/83 54/381/83 50/377/83
f 55/384/84 51/380/84 49/379/84 53/383/84
f 56/382/83 60/386/83 58/385/83 54/381/83
f 59/388/84 55/384/84 53/383/84 57/387/84
f 60/386/83 64/390/83 62/389/83 58/385/83
f 63/392/84 59/388/84 57/387/84 61/391/84
f 64/390/83 68/394/83 66/393/83 62/389/83
f 67/396/84 63/392/84 61/391/84 65/395/84
f 68/394/83 72/398/83 70/397/83 66/393/83
f 71/400/84 67/396/84 65/395/84 69/399/84
f 72/398/83 76/402/83 74/401/83 70/397/83
f 75/404/84 71/400/84 69/399/84 73/403/84
f 76/402/83 80/406/83 78/405/83 74/401/83
f 79/408/84 75/404/84 73/403/84 77/407/84
f 80/406/83 84/410/83 82/409/83 78/405/83
f 83/412/84 79/408/84 77/407/84 81/411/84
f 84/410/83 88/414/83 86/413/83 82/409/83
f 87/416/84 83/412/84 81/411/84 85/415/84
f 88/414/83 92/418/83 90/417/83 86/413/83
f 91/420/84 87/416/84 85/415/84 89/419/84
f 92/418/83 96/422/83 94/421/83 90/417/83
f 95/424/84 91/420/84 89/419/84 93/423/84
f 96/422/83 100/426/83 98/425/83 94/421/83
f 99/428/84 95/424/84 93/423/84 97/427/84
f 100/426/83 104/430/83 102/429/83 98/425/83
f 103/432/84 99/428/84 97/427/84 101/431/84
f 104/430/83 108/434/83 106/433/83 102/429/83
f 107/436/84 103/432/84 101/431/84 105/435/84
f 108/434/83 112/438/83 110/437/83 106/433/83
f 111/440/84 107/436/84 105/435/84 109/439/84
f 112/438/83 116/442/83 114/441/83 110/437/83
f 115/444/84 111/440/84 109/439/84 113/443/84
f 116/442/83 120/446/83 118/445/83 114/441/83
f 119/448/84 115/444/84 113/443/84 117/447/84
f 120/446/83 124/450/83 122/449/83 118/445/83
f 123/452/84 119/448/84 117/447/84 121/451/84
f 124/450/83 128/454/83 126/453/83 122/449/83
f 127/456/84 123/452/84 121/451/84 125/455/84
f 128/454/83 132/458/83 130/457/83 126/453/83
f 131/460/84 127/456/84 125/455/84 129/459/84
f 132/458/83 136/462/83 134/461/83 130/457/83
f 135/464/84 131/460/84 129/459/84 133/463/84
f 136/462/83 140/466/83 138/465/83 134/461/83
f 139/468/84 135/464/84 133/463/84 137/467/84
f 140/466/83 144/470/83 142/469/83 138/465/83
f 143/472/84 139/468/84 137/467/84 141/471/84
f 144/470/83 148/474/83 146/473/83 142/469/83
f 147/476/84 143/472/84 141/471/84 145/475/84
f 148/474/83 152/478/83 150/477/83 146/473/83
f 151/480/84 147/476/84 145/475/84 149/479/84
f 152/478/83 156/482/83 154/481/83 150/477/83
f 155/484/84 151/480/84 149/479/84 153/483/84
f 156/482/83 160/486/83 158/485/83 154/481/83
f 159/488/84 155/484/84 153/483/84 157/487/84
f 160/486/83 164/490/83 162/489/83 158/485/83
f 163/492/84 159/488/84 157/487/84 161/491/84

